<?xml version="1.0" standalone="no"?>
<!DOCTYPE svg PUBLIC "-//W3C//DTD SVG 20010904//EN"
 "http://www.w3.org/TR/2001/REC-SVG-20010904/DTD/svg10.dtd">
<svg version="1.0" xmlns="http://www.w3.org/2000/svg"
 width="512.000000pt" height="512.000000pt" viewBox="0 0 512.000000 512.000000"
 preserveAspectRatio="xMidYMid meet">
<metadata>
Created by potrace 1.11, written by Peter Selinger 2001-2013
</metadata>
<g transform="translate(0.000000,512.000000) scale(0.100000,-0.100000)"
fill="#000000" stroke="none">
<path d="M2440 5104 c-30 -8 -93 -33 -140 -55 -145 -70 -205 -81 -355 -64
-214 24 -331 -18 -495 -178 -112 -108 -176 -145 -310 -176 -110 -26 -179 -58
-247 -113 -56 -46 -120 -139 -153 -222 -47 -117 -107 -188 -234 -271 -181
-119 -245 -235 -260 -470 -9 -129 -34 -193 -121 -310 -29 -38 -62 -88 -73
-110 -58 -115 -63 -249 -16 -400 38 -126 38 -227 -1 -350 -22 -68 -29 -111
-30 -179 -2 -129 25 -204 120 -331 90 -121 112 -179 121 -320 13 -220 84 -345
259 -459 130 -85 179 -144 241 -286 77 -180 191 -272 400 -323 140 -35 192
-64 301 -170 168 -166 279 -206 498 -182 145 16 234 0 351 -61 97 -52 182 -72
279 -69 44 2 87 5 95 7 39 10 72 24 155 63 135 64 206 76 345 60 131 -15 223
-5 315 36 56 25 97 57 195 152 96 94 172 137 285 162 217 48 329 139 414 335
58 135 101 185 236 275 180 120 246 239 259 465 8 133 32 195 121 315 29 38
61 86 70 105 60 117 67 261 21 400 -40 120 -41 230 -2 355 47 149 42 285 -16
400 -11 22 -44 72 -73 111 -91 121 -112 177 -121 314 -7 119 -30 210 -71 277
-47 79 -83 115 -183 183 -141 95 -171 130 -253 300 -98 204 -201 278 -455 326
-7 1 -41 16 -76 32 -46 22 -94 58 -172 133 -168 160 -286 203 -484 175 -135
-20 -218 -5 -360 62 -52 24 -108 49 -125 54 -56 16 -197 18 -255 2z"/>
</g>
</svg>
